<svg xmlns="http://www.w3.org/2000/svg" width="256" height="256" viewBox="0 0 256 256">
<!-- SVG created with Arrow, by QuiverAI (https://quiver.ai) -->
  <path d="m253.9 105.6v5.24h-10.5v5.24h-10.5v5.24h-5.25v5.24h-5.25v5.24h-5.25v5.24h-5.25v5.24h-5.25v-15.72h-7.33v-26.2h-5.25v-15.72h-5.25v-10.48h-5.25v-12.12h-5.89v-11.88h-5.25v-5.24h-5.25v-5.24h-5.25v-5.24h-5.25v-5.24h-10.5v-5.24h-11.5v-5.66h-69.51v5.24h-5.25v5.24h-10.5v5.24h-11.5v5.66h-6.08v27.6h-5.25v5.24h-5.25v5.24h-5.25v12.12h-5.25v10.48h-5.25v37.48h5.25v21.68h-5.25v10.88h9.42v-5.64h5.25v-5.24h5.89v-22.88h-5.89v-31.04h5.25v16.32h5.89v5.24h12.1v-5.24h5.25v-5.24h4.66v5.24h11.5v-5.24h27v-5.24h5.8v9.92h5.25v5.24h16.04v-10.48h-5.25v-4.68h10.5v4.68h21.68v21.08h4.66v16.32h5.89v16.88h5.89v10.48h5.25v8.36h5.25v10.48h5.25v4.68h5.85v5.24h5.85v6.8h5.85v5.24h5.85v5.8h5.85v6.8h6.39v6.36h13.24v1.6h28.94v-136.6h-2.04z" fill="#000"/>
  <path d="m10.85 160h5.25v5.24h-5.25v-5.24z" fill="#634A46"/>
  <path d="m10.85 100.3h5.25v36.28h-5.25v-36.28z" fill="#B78882"/>
  <path d="m16.1 136.6h5.25v22.8h-5.25v-22.8z" fill="#B78882"/>
  <path d="m16.1 94.61h5.25v10.48h-5.25v-10.48z" fill="#B78882"/>
  <path d="m21.35 78.29h5.25v16.32h-5.25v-16.32z" fill="#3A3631"/>
  <path d="m26.6 72.49h5.25v5.24h-5.25v-5.24z" fill="#3A3631"/>
  <path d="m31.85 67.25h5.25v5.24h-5.25v-5.24z" fill="#3A3631"/>
  <path d="m37.1 44.89h5.25v10.48h-5.25v-10.48z" fill="#3A3631"/>
  <path d="m42.35 39.65h5.25v5.24h-5.25v-5.24z" fill="#3A3631"/>
  <path d="m49.43 33.93h5.25v5.24h-5.25v-5.24z" fill="#3A3631"/>
  <path d="m59.93 23.45h5.25v5.24h-5.25v-5.24z" fill="#3A3631"/>
  <path d="m65.18 18.83h5.25v5.24h-5.25v-5.24z" fill="#3A3631"/>
  <path d="m70.43 23.45h5.85v5.24h-5.85v-5.24z" fill="#495A31"/>
  <path d="m81.48 23.45h42.13v5.24h-11.05v5.24h-5.85v-5.24h-20.03v-5.24h-5.2z" fill="#495A31"/>
  <path d="m123.6 23.45h11.05v5.24h-11.05v-5.24z" fill="#495A31"/>
  <path d="m134.7 28.69h11.5v5.24h-11.5v-5.24z" fill="#394621"/>
  <path d="m146.2 33.93h5.25v5.24h-5.25v-5.24z" fill="#7A8751"/>
  <path d="m151.4 39.17h5.85v5.24h-5.85v-5.24z" fill="#495A31"/>
  <path d="m157.3 44.41h5.85v5.24h-5.85v-5.24z" fill="#394621"/>
  <path d="m163.1 49.65h5.85v5.24h-5.85v-5.24z" fill="#495A31"/>
  <path d="m169 54.89h5.25v5.24h-5.25v-5.24z" fill="#394621"/>
  <path d="m177 62.01h5.85v8.36h-5.85v-8.36z" fill="#394621"/>
  <path d="m182.9 72.49h5.25v8.92h-5.25v-8.92z" fill="#394621"/>
  <path d="m187.5 84.01h5.25v15.72h-5.25v-15.72z" fill="#394621"/>
  <path d="m193.4 100.3h5.25v26.2h-5.25v-26.2z" fill="#394621"/>
  <path d="m193.4 126.5h5.25v10.48h-5.25v-10.48z" fill="#394621"/>
  <path d="m198.6 137h5.25v10.48h-5.25v-10.48z" fill="#394621"/>
  <path d="m203.9 142.2h5.25v5.24h-5.25v-5.24z" fill="#716F44"/>
  <path d="m209.1 137h5.85v16.32h-5.85v-5.84h-5.25v-5.24h5.25v-5.24z" fill="#081101"/>
  <path d="m215 131.8h5.85v21.68h-5.85v-21.68z" fill="#394621"/>
  <path d="m220.8 126.5h5.85v5.24h-5.85v-5.24z" fill="#394621"/>
  <path d="m226.7 121.3h5.85v5.24h-5.85v-5.24z" fill="#394621"/>
  <path d="m232.5 116h11.05v5.24h-11.05v-5.24z" fill="#081101"/>
  <path d="m248.8 113.4h6.94v6.8h-6.94v-6.8z" fill="#716F44"/>
  <path d="m254.6 120.8h1.3v10.96h-6.39v5.24h-5.85v-10.48h5.85v-5.72h5.09z" fill="#596332"/>
  <path d="m249.4 137h5.25v5.24h-5.25v-5.24z" fill="#596332"/>
  <path d="m243.6 137h6.95v8.36h-6.95v-8.36z" fill="#71884A"/>
  <path d="m254.6 142.2h1.3v10.24h-11.04v-5h-5.85v-5.24h-5.85v-10.48h5.85v-5.24h5.85v5.24h5.85v5.24h-1.35v5.24h5.24z" fill="#394621"/>
  <path d="m232.5 121.3h11.05v5.24h-5.85v5.24h-11.05v-5.24h5.85v-5.24z" fill="#716F44"/>
  <path d="m220.8 131.8h6.4v10.48h-6.4v-10.48z" fill="#716F44"/>
  <path d="m227.2 142.2h6.4v5.8h5.25v5.24h5.25v5.24h11.84v9.92h-6.39v-5.24h-5.25v5.24h-5.85v-5.8h-5.25v-5.24h-11.05v-5.24h5.05v-9.92z" fill="#394621"/>
  <path d="m215 153.4h5.85v5.24h-5.85v-5.24z" fill="#081101"/>
  <path d="m220.8 158.7h5.85v5.24h-5.85v-5.24z" fill="#081101"/>
  <path d="m226.7 163.9h5.85v5.24h-5.85v-5.24z" fill="#081101"/>
  <path d="m232.5 169.2h5.25v5.24h-5.25v-5.24z" fill="#081101"/>
  <path d="m237.8 174.4h12.75v5.24h4.69v5.8h-6.39v-5.8h-11.05v-5.24z" fill="#081101"/>
  <path d="m249.5 189.7h6.39v5.8h-6.39v-5.8z" fill="#394621"/>
  <path d="m243.1 191.3h6.95v5.8h-6.95v-5.8z" fill="#96A56D"/>
  <path d="m232.1 190.8h12.2v6.32h-6.95v3.12h-5.25v-9.44z" fill="#596332"/>
  <path d="m243.1 206h12.79v11h-5.84v-5.24h-6.95v-5.76z" fill="#394621"/>
  <path d="m249.5 217.4h6.39v8.92h-6.39v-8.92z" fill="#394621"/>
  <path d="m243.1 222.1h6.4v6.36h5.24v13.68h-6.94v-6.8h-4.7v-13.24z" fill="#B7B172"/>
  <path d="m236.7 235.9h6.95v6.28h-6.95v-6.28z" fill="#96945A"/>
  <path d="m230.3 231.2h6.95v5.8h-6.95v-5.8z" fill="#96945A"/>
  <path d="m229.3 222.3h6.95v5.24h-5.85v5.8h-5.85v4.12h-5.85v-9.92h5.25v-5.24h5.35z" fill="#B7B172"/>
  <path d="m223.4 216.5h5.85v5.8h-5.85v-5.8z" fill="#96945A"/>
  <path d="m217 206h5.85v6.32h5.25v4.68h-11.05v-5.8h-5.85v-5.24h5.8v0.04z" fill="#B7B172"/>
  <path d="m211.2 195.6h5.85v5.24h5.25v5.24h-5.85v-5.24h-5.25v-5.24z" fill="#71884A"/>
  <path d="m205.3 186.6h6.4v5.24h5.25v5.24h-5.85v-4.68h-5.8v-5.8z" fill="#596332"/>
  <path d="m200.1 186.1h5.25v6.32h-5.25v-6.32z" fill="#71884A"/>
  <path d="m193.7 192.4h11.05v5.8h-6.4v5.8h-5.85v-5.8h-5.85v-5.8h7.05z" fill="#B7B172"/>
  <path d="m182.6 186.1h11.05v5.8h-11.05v-5.8z" fill="#96945A"/>
  <path d="m177.4 180.3h6.4v5.8h-6.4v-5.8z" fill="#96945A"/>
  <path d="m182.6 171h5.85v5.24h-5.85v-5.24z" fill="#596332"/>
  <path d="m188.5 165.2h4.7v5.24h11.05v5.8h3.65v9.92h-7.5v-4.68h-6.95v-5.24h-5.85v-6.32h4.15v-4.72h-3.25z" fill="#596332"/>
  <path d="m193.2 154.7h5.85v5.24h5.25v5.24h-9.95v-5.24h-5.25v-5.24h4.1z" fill="#394621"/>
  <path d="m193.2 143.6h5.25v5.8h-5.25v-5.8z" fill="#71884A"/>
  <path d="m187.3 116h5.85v10.48h-5.85v-10.48z" fill="#716F44"/>
  <path d="m187.3 100.3h5.25v15.2h-5.25v-15.2z" fill="#716F44"/>
  <path d="m181.5 89.29h5.85v10.48h-5.85v-10.48z" fill="#716F44"/>
  <path d="m176.2 73.57h5.25v8.36h-5.25v-8.36z" fill="#716F44"/>
  <path d="m169.3 62.01h5.85v10.48h-5.85v-10.48z" fill="#716F44"/>
  <path d="m163.4 55.37h5.85v5.24h-5.85v-5.24z" fill="#716F44"/>
  <path d="m157.6 49.65h5.85v5.24h-5.85v-5.24z" fill="#716F44"/>
  <path d="m134.7 39.17h5.85v5.24h-5.85v-5.24z" fill="#394621"/>
  <path d="m112.6 33.93h11.05v-5.24h5.85v5.24h5.25v10.48h-22.15v-10.48z" fill="#5E6635"/>
  <path d="m106.7 44.41h22.15v5.24h-5.25v5.8h-11.05v-5.8h-5.85v-5.24z" fill="#5E6635"/>
  <path d="m128.9 44.41h5.85v5.24h-5.85v-5.24z" fill="#B7B172"/>
  <path d="m140.5 44.41h6.4v5.24h5.3v5.24h-5.85v5.8h-5.85v-16.28z" fill="#394621"/>
  <path d="m152.2 54.89h5.85v5.24h-5.85v-5.24z" fill="#596332"/>
  <path d="m157.5 60.13h5.85v5.8h-5.85v-5.8z" fill="#394621"/>
  <path d="m163.4 65.93h5.85v10.48h-5.85v-10.48z" fill="#596332"/>
  <path d="m168.6 76.41h6.4v5.8h-6.4v-5.8z" fill="#394621"/>
  <path d="m174.5 82.21h5.85v6.8h-5.85v-6.8z" fill="#394621"/>
  <path d="m162.9 77.53h5.85v16.32h11.05v10.48h-5.25v-5.24h-5.85v-5.24h-5.8v-16.32z" fill="#596332"/>
  <path d="m162.9 105h5.85v10.48h-5.85v-10.48z" fill="#394621"/>
  <path d="m168.8 105h6.4v6.32h-6.4v-6.32z" fill="#71884A"/>
  <path d="m174.6 110.8h5.85v5.8h-5.85v-5.8z" fill="#394621"/>
  <path d="m162.9 116h11.6v-5.24h5.85v15.72h-5.85v5.24h-11.6v-15.72z" fill="#596332"/>
  <path d="m151.3 126.5h11.6v5.8h-5.25v4.72h-6.35v-10.52z" fill="#B7B172"/>
  <path d="m151.3 132.3h5.25v5.8h-5.25v-5.8z" fill="#596332"/>
  <path d="m156.6 137.5h6.95v-5.8h5.85v11h-5.3v5.24h-7.5v-10.44z" fill="#96945A"/>
  <path d="m169.4 142.2h5.85v5.8h5.85v5.24h-6.95v5.24h-5.85v5.24h-5.35v-10.48h-5.25v-5.8h5.85v-5.24h5.85z" fill="#B7B172"/>
  <path d="m175.2 153.3h6.95v5.8h-6.95v-5.8z" fill="#596332"/>
  <path d="m181.1 136.5h6.4v11h-6.4v-11z" fill="#596332"/>
  <path d="m168.2 163.2h6.4v-4.72h6.4v9.92h5.25v6.8h-11.05v4.68h-6.95v-8.92h-3.2v-7.76h3.15z" fill="#B7B172"/>
  <path d="m175.2 186.1h5.85v8.92h-5.85v-8.92z" fill="#96945A"/>
  <path d="m222.3 200.3h5.85v5.8h5.3v5.24h9.7v5.8h-11.05v-5.24h-9.8v-11.6z" fill="#596332"/>
  <path d="m192.5 203.8h5.85v6.8h-5.85v-6.8z" fill="#394621"/>
  <path d="m198.3 210.1h6.95v6.8h-6.95v-6.8z" fill="#394621"/>
  <path d="m204.2 221.2h6.95v5.8h-6.95v-5.8z" fill="#081101"/>
  <path d="m210 227h6.4v6.8h-6.4v-6.8z" fill="#081101"/>
  <path d="m217 235.3h7.5v4.68h-7.5v-4.68z" fill="#081101"/>
  <path d="m229.3 239.5h10.5v2.68h-10.5v-2.68z" fill="#081101"/>
  <path d="m210.6 164h6.4v5.24h5.25v5.8h3.65v10.48h6.4v5.8h-6.4v-5.24h-5.25v-5.8h-5.25v-5.8h-4.8v-10.48z" fill="#596332"/>
  <path d="m226.7 174.4h6.95v5.24h5.85v5.8h9.95v5.32h-11.6v-4.68h-11.15v-11.68z" fill="#394621"/>
  <path d="m216.4 158.7h5.85v5.24h-5.85v-5.24z" fill="#394621"/>
  <path d="m200.1 154.7h5.25v5.24h-5.25v-5.24z" fill="#71884A"/>
  <path d="m54.13 33.93h16.05v5.24h-16.05v-5.24z" fill="#5E6635"/>
  <path d="m70.18 33.93h5.85v5.24h-5.85v-5.24z" fill="#71884A"/>
  <path d="m76.03 33.93h6.4v5.24h-6.4v-5.24z" fill="#495A31"/>
  <path d="m82.43 33.93h5.25v15.72h-5.25v-15.72z" fill="#495A31"/>
  <path d="m87.68 29.25h14.59v5.24h-3.65v15.16h-10.94v-20.4z" fill="#000"/>
  <path d="m102.3 33.93h5.25v15.72h-5.25v-15.72z" fill="#000"/>
  <path d="m87.68 35.01h4.7v9.4h-4.7v-9.4z" fill="#FFF9C7"/>
  <path d="m98.07 35.01h3.65v7.84h-3.65v-7.84z" fill="#F3C644"/>
  <path d="m70.18 39.17h5.25v10.48h-5.25v-10.48z" fill="#495A31"/>
  <path d="m54.13 39.17h11.05v10.48h-11.05v-10.48z" fill="#71884A"/>
  <path d="m37.53 44.89h11.05v10.48h-11.05v-10.48z" fill="#8BA56A"/>
  <path d="m53.58 44.89h6.4v4.76h-6.4v-4.76z" fill="#394621"/>
  <path d="m54.13 49.65h11.05v5.8h-11.05v-5.8z" fill="#495A31"/>
  <path d="m65.18 49.65h5.85v10.48h-5.85v-10.48z" fill="#495A31"/>
  <path d="m75.68 49.65h6.4v10.48h-6.4v-10.48z" fill="#8BA56A"/>
  <path d="m82.08 49.65h5.85v5.24h-5.85v-5.24z" fill="#495A31"/>
  <path d="m87.93 54.89h5.85v5.24h-5.85v-5.24z" fill="#495A31"/>
  <path d="m93.78 54.89h5.84v5.24h-5.84v-5.24z" fill="#71884A"/>
  <path d="m106 49.65h11.6v5.8h-11.6v-5.8z" fill="#8BA56A"/>
  <path d="m134.1 49.65h6.4v10.96h-6.4v-10.96z" fill="#71884A"/>
  <path d="m145.7 55.37h11.05v10.48h-11.05v-10.48z" fill="#71884A"/>
  <path d="m139.3 65.85h11.6v5.8h-5.8v15.72h-5.8v-21.52z" fill="#394621"/>
  <path d="m150.9 71.09h6.4v16.32h-6.4v-16.32z" fill="#596332"/>
  <path d="m140.5 88.01h7v5.8h-7v-5.8z" fill="#B7B172"/>
  <path d="m146.3 93.81h12.2v5.8h-6.4v5.24h-5.8v-5.24h-5.25v-5.8h5.25z" fill="#716F44"/>
  <path d="m152.1 99.61h7.5v9.4h-5.85v6.32h-3.65v5.8h-3.8v-15.72h5.8v-5.8z" fill="#B7B172"/>
  <path d="m158.5 104.8h4.2v15.72h-5.85v-5.24h-3.1v-6.32h4.75v-4.16z" fill="#96945A"/>
  <path d="m37.1 60.61h17.03v6.64h-5.85v-5.24h-11.18v-1.4z" fill="#000"/>
  <path d="m54.13 60.13h16.05v5.8h-16.05v-5.8z" fill="#000"/>
  <path d="m107.2 55.97h23.29v10.48h-5.25v-5.24h-12.19v5.24h-5.85v-10.48z" fill="#000"/>
  <path d="m129.4 65.85h8.85v5.24h-8.85v-5.24z" fill="#000"/>
  <path d="m134.1 71.09h6.4v16.32h-6.4v-16.32z" fill="#3A3631"/>
  <path d="m128.9 71.09h4.7v5.24h-4.7v-5.24z" fill="#3A3631"/>
  <path d="m107.2 66.41h11.6v5.24h-11.6v-5.24z" fill="#000"/>
  <path d="m60.48 65.33h45.54v5.24h-5.3v13.68h-5.25v-12.12h-11.04v-3.64h-12.2v3.64h-5.85v5.24h-11.05v-5.24h5.15v-6.8z" fill="#3A3631"/>
  <path d="m26.6 77.73h10.5v-5.24h5.25v-5.24h5.25v5.24h5.85v5.24h4.7v-2.6h7.5v-3.64h10.45v-3.12h7.5v3.12h11.05v12.12h5.25v5.8h5.3v5.24h11.05v5.8h-11.05v5.8h-5.25v-5.24h-5.3v-6.88h-5.25v-5.24h-5.85v-5.24h-25.4v5.24h-5.85v-5.8h-5.25v-5.24h-4.7v-5.24h-5.25v5.12h-10.5z" fill="#695F56"/>
  <path d="m21.35 83.01h5.85v10.48h-5.85v-10.48z" fill="#695F56"/>
  <path d="m27.2 83.01h5.25v16.32h-5.25v-16.32z" fill="#695F56"/>
  <path d="m32.45 83.01h16.05v10.48h-5.25v5.8h-5.85v5.8h-4.95v-22.08z" fill="#84786F"/>
  <path d="m48.5 88.25h5.85v10.48h-5.85v5.8h-6.4v-10.96h6.4v-5.32z" fill="#84786F"/>
  <path d="m54.35 93.49h5.25v5.8h-5.25v-5.8z" fill="#84786F"/>
  <path d="m59.6 99.29h5.25v5.8h-5.25v-5.8z" fill="#716F44"/>
  <path d="m65.45 105.1h6.4v5.24h-6.4v-5.24z" fill="#B7B172"/>
  <path d="m71.85 105.1h6.4v5.24h-6.4v-5.24z" fill="#96945A"/>
  <path d="m78.25 105.1h6.4v5.24h-6.4v-5.24z" fill="#B7B172"/>
  <path d="m84.65 105.1h6.4v5.24h-6.4v-5.24z" fill="#716F44"/>
  <path d="m54.35 110.3h4.7v5.24h-4.7v-5.24z" fill="#B7B172"/>
  <path d="m32.45 110.3h5.85v5.8h4.75v5.76h-10.6v-11.56z" fill="#B78882"/>
  <path d="m38.3 109.8h5.85v5.24h-5.85v-5.24z" fill="#000"/>
  <path d="m43.55 104.5h10.5v5.8h-10.5v-5.8z" fill="#000"/>
  <path d="m59.6 99.29h5.25v-8.88h5.25v7.8h10.5v-4.68h5.85v-4.16h4.7v11h-4.7v4.68h-21v-5.76h-5.85z" fill="#000"/>
  <path d="m118.8 61.73h5.84v5.8h-5.84v-5.8z" fill="#782626"/>
  <path d="m107.7 71.65h11.05v8.36h4.19v5.24h-9.94v-3.12h-5.3v-10.48z" fill="#B78882"/>
  <path d="m107.2 83.61h5.25v4.2h-5.25v-4.2z" fill="#3A3631"/>
  <path d="m128.9 76.33h4.7v12.12h-4.7v-12.12z" fill="#191814"/>
  <path d="m134.1 93.33h5.25v6.8h-5.25v-6.8z" fill="#191814"/>
  <path d="m134.1 105h5.25v5.24h-5.25v-5.24z" fill="#B78882"/>
  <path d="m124.2 95.41h4.15v4.2h-4.15v-4.2z" fill="#080807"/>
  <path d="m105.2 100.3h4.15v5.8h-4.15v-5.8z" fill="#3A3631"/>
  <path d="m104.2 115h8.4v6.32h-8.4v-6.32z" fill="#B78882"/>
  <path d="m110.4 100.3h12.75v5.8h-12.75v-5.8z" fill="#3A3631"/>
  <path d="m128.9 105h4.7v4.72h-4.7v-4.72z" fill="#695F56"/>
  <path d="m58.1 67.25h1.5v5.8h-4.2v-5.8h2.7z" fill="#fff"/>
  <path d="m39.75 62.01h3.65v4.72h-4.7v-4.72h1.05z" fill="#fff"/>
  <path d="m58.1 84.61h22.7v4.72h-5.25v4.16h-5.85v-4.16h-11.6v-4.72z" fill="#CCC3B0"/>
</svg>